<?xml version="1.0" encoding="utf-8"?>
<!-- Generator: Adobe Illustrator 25.2.1, SVG Export Plug-In . SVG Version: 6.00 Build 0)  -->
<svg version="1.1" id="Capa_1" xmlns="http://www.w3.org/2000/svg" xmlns:xlink="http://www.w3.org/1999/xlink" x="0px"
	y="0px" viewBox="0 0 566.93 566.93" fill="#be3147" style="enable-background:new 0 0 566.93 566.93;"
	xml:space="preserve">
	<g>
		<path d="M452.83,354.92c0.95-20.45,1.9-40.78,2.85-61.28c-0.48,0.14-0.83,0.2-1.14,0.34c-7.9,3.48-15.79,6.99-23.71,10.44
		c-0.82,0.36-1.2,0.89-1.51,1.68c-1.59,4.1-3.17,8.21-4.89,12.26c-0.76,1.8-1.75,3.51-2.76,5.19c-0.54,0.9-1.25,1.73-2.03,2.43
		c-1.19,1.06-2.56,0.79-3.3-0.62c-0.31-0.59-0.51-1.31-0.51-1.97c-0.01-3.07,0.03-6.15,0.14-9.22c0.06-1.59,0.31-3.17,0.45-4.75
		c0.04-0.45,0.01-0.92,0.01-1.69c-3.1,1.58-5.95,3.03-8.93,4.56c-0.49-0.98-0.92-1.86-1.4-2.84c3.01-1.58,5.91-3.09,8.89-4.65
		c-0.91-2.08-2.16-3.8-3.82-5.12c-1.94-1.55-4.06-2.86-6.1-4.29c-1.04-0.73-2.11-1.41-3.08-2.23c-0.55-0.47-1-1.12-1.33-1.77
		c-0.94-1.85-0.27-3.5,1.67-4.21c1.54-0.57,3.12-0.53,4.71-0.25c3.46,0.62,6.74,1.83,9.95,3.21c2.14,0.92,4.25,1.91,6.36,2.91
		c0.57,0.27,1.04,0.31,1.64,0.04c8.07-3.76,16.14-7.49,24.22-11.23c0.19-0.09,0.35-0.22,0.65-0.42
		c-15.33-13.07-30.62-26.1-45.98-39.2c0.25-0.16,0.36-0.3,0.49-0.31c3.28-0.23,6.56-0.49,9.84-0.65c0.81-0.04,1.69,0.13,2.45,0.43
		c21.14,8.46,42.27,16.93,63.39,25.45c1.18,0.48,2.14,0.45,3.31-0.03c8.97-3.65,17.98-7.23,26.97-10.85c1.29-0.52,2.6-1.02,4-0.88
		c3.37,0.32,6.84,2.97,5.18,8.11c-0.62,1.91-1.79,3.29-3.64,4.19c-9.24,4.51-18.45,9.08-27.69,13.59c-0.98,0.48-1.56,1.09-1.95,2.11
		c-8.71,22.72-17.45,45.42-26.15,68.14c-0.46,1.2-1.06,1.94-2.38,2.17c-1.24,0.22-2.44,0.71-3.66,1.05
		C453.68,354.83,453.32,354.85,452.83,354.92z" />
		<path d="M271.16,295.21c-2.81,3.29-5.95,6.13-9.25,9.05c-0.72-0.8-1.38-1.53-2.07-2.31c3.02-2.93,5.98-5.79,9.03-8.75
		C269.58,293.83,270.33,294.48,271.16,295.21z" />
		<path d="M138.1,305.05c-0.73,0.77-1.38,1.45-2.19,2.3c-3.03-3.07-5.98-6.06-9.06-9.16c0.85-0.79,1.58-1.45,2.15-1.98
		C132.04,299.15,135.01,302.04,138.1,305.05z" />
		<path d="M242.45,358.75c0-1.11,0-2.08,0-3.1c4.22-0.15,8.32-0.31,12.52-0.46c0.1,1.06,0.19,1.99,0.29,3.02
		C250.96,358.78,246.75,358.72,242.45,358.75z" />
		<path d="M188.12,344.01c3.62,2.26,6.98,4.35,10.47,6.53c-0.25,0.89-0.51,1.84-0.76,2.76c-1.48-0.24-7.46-3.77-11.38-6.7
		C186.99,345.76,187.54,344.9,188.12,344.01z" />
		<path d="M235.95,355.62c0,1.04,0,1.97,0,3.05c-4.33,0.14-8.5-0.35-12.87-0.67c0.12-1.08,0.23-2.01,0.36-3.12
		C227.6,355.13,231.7,355.37,235.95,355.62z" />
		<path d="M150.57,179.98c-4.11-0.02-7.95,0.84-11.85,2.09c-0.37-0.97-0.7-1.84-1.1-2.9c4.18-1.6,8.41-2.41,12.95-2.34
		C150.57,177.91,150.57,178.92,150.57,179.98z" />
		<path d="M273.94,353.23c0.16,1.17,0.29,2.05,0.44,3.16c-4.25,0.5-8.41,0.99-12.72,1.49c-0.13-1.17-0.24-2.13-0.36-3.19
		C265.59,354.2,269.71,353.72,273.94,353.23z" />
		<path d="M383.06,320.25c0.46,1.04,0.83,1.9,1.29,2.94c-3.91,1.67-7.73,3.31-11.73,5.02c-0.42-0.96-0.82-1.85-1.29-2.93
		C375.24,323.6,379.06,321.97,383.06,320.25z" />
		<path d="M247.68,316.99c-0.75-0.83-1.41-1.57-2.14-2.39c3.19-2.86,6.3-5.65,9.49-8.5c0.74,0.83,1.41,1.57,2.15,2.4
		C253.98,311.36,250.88,314.13,247.68,316.99z" />
		<path d="M125.33,383.09c0.34,1.02,0.64,1.91,0.98,2.95c-4,1.47-8.05,2.58-12.21,3.86c-0.32-1.06-0.6-2-0.91-3.05
		C117.26,385.59,121.22,384.36,125.33,383.09z" />
		<path d="M318.19,347.1c-0.31-1.12-0.58-2.06-0.87-3.09c4.13-1.21,8.11-2.37,12.22-3.58c0.32,1.05,0.6,1.94,0.95,3.05
		C326.38,344.68,322.36,345.87,318.19,347.1z" />
		<path d="M182.82,340.49c-0.61,0.91-1.15,1.73-1.78,2.67c-3.56-2.49-7-4.89-10.52-7.35c0.68-0.95,1.25-1.74,1.87-2.6
		C175.91,335.66,179.31,338.04,182.82,340.49z" />
		<path d="M132.39,384.12c-0.4-1.14-0.7-1.99-1.06-3.02c3.97-1.43,7.91-2.86,11.95-4.31c0.39,1.01,0.73,1.89,1.15,2.99
		C140.43,381.21,136.49,382.63,132.39,384.12z" />
		<path d="M95.6,394.96c-0.27-1.08-0.49-1.99-0.77-3.09c4.09-1.09,8.09-2.16,12.27-3.28c0.29,1.05,0.54,1.99,0.85,3.1
		C103.78,392.79,99.77,393.85,95.6,394.96z" />
		<path d="M131.61,181.76c0.54,1.03,0.97,1.86,1.38,2.63c-3.43,2.38-6.76,4.69-10.19,7.06c-0.59-0.67-1.24-1.41-1.97-2.23
		C124.16,186.31,127.65,183.89,131.61,181.76z" />
		<path d="M233.59,176.39c0.12,0.32,0.23,0.5,0.26,0.7c0.13,0.72,0.25,1.45,0.36,2.15c-3.93,1.23-7.79,2.43-11.82,3.69
		c-0.34-0.76-0.75-1.65-1.22-2.71C225.24,178.48,229.29,177.11,233.59,176.39z" />
		<path d="M299.58,351.75c-0.25-1.07-0.48-2.02-0.74-3.09c4.16-1.01,8.2-1.99,12.35-3c0.27,1,0.52,1.9,0.82,3
		C307.92,349.89,303.81,350.73,299.58,351.75z" />
		<path d="M258.41,181.65c0.35-0.81,0.73-1.68,1.15-2.65c4.11,1.71,7.76,3.98,11.25,6.77c-0.7,0.87-1.32,1.64-1.84,2.29
		C265.44,185.92,262.02,183.84,258.41,181.65z" />
		<path d="M275.36,290.35c-0.91-0.74-1.64-1.32-2.38-1.92c2.42-3.45,4.75-6.78,7.2-10.28c0.8,0.49,1.67,1.03,2.62,1.62
		C280.53,283.51,278.12,286.96,275.36,290.35z" />
		<path d="M348.67,337.42c-4.09,1.4-7.99,2.73-12.05,4.11c-0.35-1-0.68-1.93-1.06-3.02c4.01-1.37,7.94-2.72,12.06-4.13
		C347.98,335.42,348.31,336.37,348.67,337.42z" />
		<path d="M76.97,399.32c-0.26-1.19-0.47-2.1-0.69-3.13c4.15-0.95,8.19-1.86,12.39-2.82c0.26,1.06,0.48,2,0.75,3.11
		C85.23,397.44,81.19,398.36,76.97,399.32z" />
		<path d="M167.29,329.47c-0.65,0.87-1.22,1.63-1.92,2.57c-3.39-2.61-6.71-5.18-10.14-7.83c0.68-0.86,1.29-1.63,1.99-2.53
		C160.57,324.28,163.86,326.81,167.29,329.47z" />
		<path d="M390.18,320.55c-0.45-0.99-0.85-1.85-1.32-2.88c3.85-1.82,7.64-3.6,11.5-5.42c0.48,0.95,0.9,1.79,1.41,2.79
		C398.01,317.01,394.17,318.7,390.18,320.55z" />
		<path d="M293.09,256.02c-1.08-0.28-1.99-0.51-2.95-0.76c0.75-4.07,1.48-8.05,2.24-12.2c0.91,0.04,1.88,0.09,3,0.15
		C295.05,247.6,294.24,251.73,293.09,256.02z" />
		<path d="M152.33,317.68c-0.7,0.83-1.31,1.56-2.06,2.45c-3.23-2.8-6.38-5.54-9.66-8.38c0.74-0.84,1.41-1.61,2.13-2.43
		C145.97,312.13,149.08,314.85,152.33,317.68z" />
		<path d="M231.03,326.97c3.3-2.77,6.46-5.42,9.73-8.16c0.7,0.79,1.35,1.53,2.13,2.41c-3.28,2.75-6.47,5.43-9.78,8.21
		C232.41,328.6,231.77,327.85,231.03,326.97z" />
		<path d="M99.21,228.42c1.01,0.17,1.93,0.32,2.86,0.47c-0.24,4.13-0.47,8.17-0.71,12.4c-0.85,0.05-1.78,0.11-2.67,0.17
		C97.98,239.62,98.28,231.91,99.21,228.42z" />
		<path d="M206.26,192.53c-0.57-0.74-1.13-1.49-1.81-2.38c3.4-2.72,7-4.95,10.87-7.07c0.52,0.94,1,1.8,1.48,2.66
		C213.25,188.02,209.8,190.24,206.26,192.53z" />
		<path d="M284.21,199.95c-0.94,0.66-1.72,1.2-2.48,1.74c-2.71-3.15-5.35-6.23-8.02-9.34c0.65-0.58,1.38-1.23,2.24-2
		C278.89,193.08,281.61,196.35,284.21,199.95z" />
		<path d="M125.01,291.32c-0.81,0.69-1.53,1.3-2.36,2c-2.9-3.22-5.46-6.55-8.04-10.06c0.9-0.65,1.7-1.22,2.54-1.83
		C119.77,284.74,122.34,287.96,125.01,291.32z" />
		<path d="M280.71,355.38c-0.19-1.13-0.34-2.06-0.51-3.11c4.19-0.77,8.28-1.51,12.49-2.28c0.21,1.05,0.39,1.96,0.61,3.04
		C289.13,353.99,285.05,354.67,280.71,355.38z" />
		<path d="M169.94,179.96c-0.35,1.01-0.65,1.9-0.96,2.8c-4-0.9-7.93-1.79-12.1-2.73c0.08-0.78,0.17-1.75,0.28-2.89
		C161.58,177.5,165.72,178.53,169.94,179.96z" />
		<path d="M110.77,205.72c-0.8-0.5-1.6-1-2.54-1.59c2.29-3.74,4.88-7.1,7.9-10.35c0.79,0.73,1.51,1.38,2.21,2.03
		C115.81,199.12,113.35,202.34,110.77,205.72z" />
		<path d="M366.67,330.62c-4.07,1.57-7.95,3.06-11.95,4.6c-0.39-1.05-0.74-1.97-1.13-3c3.99-1.54,7.86-3.02,11.86-4.56
		C365.85,328.65,366.21,329.51,366.67,330.62z" />
		<path d="M105.07,209.83c1,0.49,1.87,0.92,2.69,1.32c-1.47,3.9-2.88,7.64-4.34,11.51c-0.94,0.09-1.88-0.34-2.92-0.72
		C101.6,217.74,103.1,213.77,105.07,209.83z" />
		<path d="M104.69,266.59c1-0.46,1.89-0.86,2.76-1.27c2.04,3.66,4.02,7.21,6.08,10.92c-0.75,0.5-1.56,1.05-2.53,1.7
		C108.6,274.32,106.53,270.62,104.69,266.59z" />
		<path d="M204.06,355.02c0.24-1.08,0.44-1.99,0.67-3.04c4.13,0.73,8.16,1.44,12.39,2.18c-0.12,0.99-0.24,1.95-0.38,3.04
		C212.43,356.76,208.36,355.92,204.06,355.02z" />
		<path d="M194.74,352.3c0.54,0.92,1.04,1.77,1.62,2.77c-3.72,2.1-7.36,4.15-11.13,6.29c-0.53-0.95-1.01-1.81-1.56-2.8
		C187.37,356.46,190.99,354.42,194.74,352.3z" />
		<path d="M217.8,341.04c-0.64-0.88-1.22-1.68-1.86-2.55c3.41-2.55,6.74-5.04,10.15-7.59c0.65,0.82,1.23,1.56,1.95,2.46
		C224.71,336.05,221.32,338.52,217.8,341.04z" />
		<path d="M201.8,351.73c-0.6-0.97-1.11-1.81-1.66-2.71c3.57-2.32,7.05-4.59,10.61-6.91c0.59,0.84,1.13,1.61,1.79,2.56
		C209.1,347.14,205.54,349.37,201.8,351.73z" />
		<path d="M252.54,179.91c-4.02-0.95-7.98-1.38-12.14-1.17c0-1.08,0-2.05,0-3.15c4.32-0.24,8.58,0.05,12.93,1.29
		C253.06,177.91,252.81,178.84,252.54,179.91z" />
		<path d="M102.22,260.57c-1.51-4.14-2.57-8.25-3.19-12.62c1.11-0.17,2.07-0.32,2.96-0.45c1.02,4.06,2,7.94,3.03,12.03
		C104.23,259.83,103.28,260.18,102.22,260.57z" />
		<path d="M150.37,377.48c-0.45-1.13-0.8-2.01-1.18-2.98c3.91-1.64,7.75-3.24,11.71-4.9c0.43,0.98,0.82,1.88,1.28,2.94
		C158.22,374.19,154.38,375.8,150.37,377.48z" />
		<path d="M288.3,261.21c1.01,0.37,1.84,0.67,2.83,1.03c-1.36,4.13-3.1,8-5.15,11.88c-0.98-0.52-1.85-0.98-2.7-1.43
		C284.97,268.8,286.62,265.05,288.3,261.21z" />
		<path d="M187.21,189.07c-0.65,0.87-1.24,1.66-1.78,2.39c-3.6-2.14-7.1-4.21-10.72-6.36c0.38-0.8,0.8-1.68,1.28-2.69
		C180.01,184.27,183.67,186.43,187.21,189.07z" />
		<path d="M190.26,195.42c0.67-0.77,1.29-1.48,2.05-2.34c1.37,1.3,2.65,2.52,4,3.8c1.02-0.9,2.01-1.76,3.09-2.7
		c0.71,0.83,1.36,1.57,2.04,2.37c-1.79,1.72-3.5,3.36-5.23,5.02C194.26,199.55,192.32,197.55,190.26,195.42z" />
		<path d="M167.97,369.87c-0.48-1.05-0.87-1.9-1.31-2.87c3.82-1.85,7.56-3.67,11.4-5.53c0.49,0.93,0.92,1.77,1.45,2.78
		C175.72,366.27,171.89,368.07,167.97,369.87z" />
		<path d="M292.88,217.45c-1.08,0.32-2.02,0.6-2.87,0.85c-1.66-3.83-3.26-7.51-4.93-11.37c0.73-0.41,1.58-0.9,2.58-1.46
		C289.86,209.21,291.5,213.14,292.88,217.45z" />
		<path d="M291.54,224.37c0.93-0.18,1.85-0.36,2.92-0.57c0.91,4.28,1.31,8.49,1.25,12.84c-1.07,0-2.01,0-2.97,0
		C292.35,232.62,291.95,228.59,291.54,224.37z" />
		<path d="M62.93,398.91c2.4-0.48,4.7-0.94,7.14-1.42c0.22,1.12,0.4,2.07,0.61,3.13c-2.42,0.48-4.68,0.94-7.1,1.42
		C63.36,400.99,63.17,400.03,62.93,398.91z" />
	</g>
</svg>