<?xml version="1.0"?>
<svg id="Layer_1" style="enable-background:new 1 -1 100 100;" version="1.1" viewBox="1 -1 100 100" xml:space="preserve" xmlns="http://www.w3.org/2000/svg" xmlns:xlink="http://www.w3.org/1999/xlink">
    <title />
    <path fill="#FFFFFF" d="M82.9,11.6H19.1c-6.1,0-11,4.9-11,11v52.9c0,6.1,4.9,11,11,11h63.7c6.1,0,11-4.9,11-11V22.6C93.9,16.5,88.9,11.6,82.9,11.6z   M46.5,21.8c2.5,0,4.5,2,4.5,4.5c0,2.5-2,4.5-4.5,4.5c-2.5,0-4.5-2-4.5-4.5C41.9,23.8,44,21.8,46.5,21.8z M33.8,21.8  c2.5,0,4.5,2,4.5,4.5c0,2.5-2,4.5-4.5,4.5c-2.5,0-4.5-2-4.5-4.5C29.2,23.8,31.3,21.8,33.8,21.8z M22,21.8c2.5,0,4.5,2,4.5,4.5  c0,2.5-2,4.5-4.5,4.5s-4.5-2-4.5-4.5C17.5,23.8,19.5,21.8,22,21.8z M87.9,75.4c0,2.8-2.2,5-5,5H19.1c-2.8,0-5-2.2-5-5V42.9h73.7  V75.4z" />
</svg>